<?xml version="1.0" encoding="UTF-8" standalone="no"?>
<!-- Created with Inkscape (http://www.inkscape.org/) -->

<svg
   xmlns:dc="http://purl.org/dc/elements/1.1/"
   xmlns:cc="http://creativecommons.org/ns#"
   xmlns:rdf="http://www.w3.org/1999/02/22-rdf-syntax-ns#"
   xmlns:svg="http://www.w3.org/2000/svg"
   xmlns="http://www.w3.org/2000/svg"
   version="1.1"
   width="490"
   height="614"
   id="svg3039">
  <metadata
     id="metadata3045">
    <rdf:RDF>
      <cc:Work
         rdf:about="">
        <dc:format>image/svg+xml</dc:format>
        <dc:type
           rdf:resource="http://purl.org/dc/dcmitype/StillImage" />
        <dc:title></dc:title>
      </cc:Work>
    </rdf:RDF>
  </metadata>
  <defs
     id="defs3043" />
  <path
     d="m 204.13741,458.25279 70.43787,1.21238 c 17.87756,9.71794 34.97907,16.06543 65.65769,12.98232 24.7083,-4.96955 45.5273,-18.64134 59.4804,-39.94712 26.88565,-46.74662 10.43699,-260.12675 14.21921,-378.34419 2.44756,-3.647156 2.35946,-1.617433 3.91275,0.101031 -1.9234,121.176319 12.67676,355.983499 -5.76301,383.779589 -12.53178,24.49297 -21.54291,43.96037 -42.50461,55.53595 -18.95219,5.35889 -25.21365,8.0246 -40.6687,6.59579 -21.6015,0.80692 -42.80858,-7.38858 -58.21899,-11.8883 l -56.82485,0.16021 c -15.57022,5.44112 -30.35395,11.27548 -55.99926,11.67906 -14.06273,-3.14201 -32.99306,-9.6494 -45.76932,-22.0764 -18.348,-23.07381 -26.884268,-48.10996 -32.306356,-73.76895 -9.956444,-117.2809 -1.93214,-234.90674 0.512339,-352.187643 1.517869,-1.642586 3.035738,-2.882267 4.553607,0 -1.373581,115.441203 -10.451052,231.227343 10.348314,346.668543 7.692206,26.53203 16.752226,49.64455 31.734836,57.95056 11.25302,6.1959 22.7662,10.80838 37.25393,11.0382 19.78754,0.23534 32.61125,-3.32659 39.94415,-9.49103 z"
     id="path3051"
     style="fill:#000000;stroke:#000000;stroke-width:1px;stroke-linecap:butt;stroke-linejoin:miter;stroke-opacity:1" />
  <g
     id="layer1" />
</svg>
